<svg xmlns="http://www.w3.org/2000/svg" width="13.033" height="14.733" viewBox="0 0 13.033 14.733">
  <path id="Vector" d="M5.051,6.584A2.833,2.833,0,0,0,6.8,3.967V1.7a.567.567,0,0,0-.567-.567H5.667A.567.567,0,1,1,5.667,0h.567a1.7,1.7,0,0,1,1.7,1.7V3.967a3.955,3.955,0,0,1-1.7,3.253,5,5,0,0,0-1.7,3.547,2.833,2.833,0,1,0,5.667,0v-.646a2.267,2.267,0,1,1,1.133,0v.646a3.967,3.967,0,1,1-7.933,0A5,5,0,0,0,2.919,8.82a5,5,0,0,0-1.207-1.6A3.955,3.955,0,0,1,0,3.967V1.7A1.7,1.7,0,0,1,1.7,0h.567a.567.567,0,1,1,0,1.133H1.7a.567.567,0,0,0-.567.567V3.967A2.833,2.833,0,0,0,5.051,6.584Zm6.517,2.15a1.133,1.133,0,1,0-.8.332A1.133,1.133,0,0,0,11.568,8.735Z" transform="translate(0)" fill="#121212"/>
</svg>
