<svg width="11" height="15" viewBox="0 0 11 15" fill="none" xmlns="http://www.w3.org/2000/svg">
<path fill-rule="evenodd" clip-rule="evenodd" d="M6.39679 1.22242C6.06033 1.12785 5.61302 1.12502 5.16641 1.12502C4.60506 1.12502 4.2562 1.27023 4.02954 1.46502C3.79898 1.66265 3.65483 1.94598 3.57125 2.29377C3.48731 2.64404 3.47066 3.03504 3.47775 3.41825C3.47916 3.48094 3.48093 3.54292 3.48306 3.60419H10.1042C10.2997 3.60419 10.4605 3.76356 10.4382 3.95765C10.2108 5.94381 8.08652 7.50002 5.50004 7.50002C2.9132 7.50002 0.789267 5.94381 0.561892 3.95765C0.53958 3.76356 0.700017 3.60419 0.895872 3.60419H2.77437C2.77225 3.54752 2.77083 3.49015 2.76977 3.43171C2.76198 3.0269 2.77791 2.56542 2.88239 2.12908C2.98758 1.69062 3.18804 1.25358 3.56806 0.927395C3.95127 0.59802 4.47756 0.416687 5.16641 0.416687H5.19191C5.607 0.416687 6.14816 0.416687 6.58875 0.540645C6.81789 0.605104 7.05341 0.711708 7.23333 0.898354C7.42281 1.09385 7.52481 1.35062 7.52481 1.65627C7.52481 1.7502 7.48749 1.84028 7.42108 1.9067C7.35466 1.97312 7.26457 2.01044 7.17064 2.01044C7.07671 2.01044 6.98663 1.97312 6.92021 1.9067C6.85379 1.84028 6.81648 1.7502 6.81648 1.65627C6.81648 1.51921 6.77575 1.44377 6.72439 1.39065C6.66383 1.32796 6.56041 1.26846 6.39679 1.22242ZM2.6667 13.875V14.5834H8.33337V13.875H2.6667Z" fill="#121212"/>
<path fill-rule="evenodd" clip-rule="evenodd" d="M7.63779 5.85669C8.14 6.20235 8.33337 6.70456 8.33337 7.25317C8.33337 7.80035 8.14141 8.30965 7.64275 8.66523C7.29283 8.91456 6.81754 9.06969 6.20837 9.1345V8.42156C6.6957 8.36135 7.02083 8.23846 7.2312 8.08865C7.5071 7.89173 7.62504 7.62008 7.62504 7.25281C7.62504 6.88731 7.50816 6.62735 7.23616 6.44C6.93654 6.23387 6.40387 6.08335 5.50004 6.08335V5.37502C6.45593 5.37502 7.1625 5.52944 7.63779 5.85669ZM4.7917 8.46902V9.17806C4.44887 9.19117 4.14783 9.2234 3.90416 9.30202C3.71327 9.36329 3.5886 9.44475 3.50998 9.5425C3.43454 9.636 3.37504 9.77767 3.37504 10.0132C3.37504 10.2498 3.43454 10.3921 3.51033 10.4864C3.58895 10.5845 3.71398 10.6663 3.90452 10.7279C4.30118 10.8561 4.8512 10.8611 5.48375 10.8611L5.49048 10.8604C5.50641 10.8593 5.52837 10.8575 5.55529 10.8568C5.60912 10.8543 5.68385 10.8533 5.7731 10.8572C6.00095 10.8664 6.22616 10.9094 6.44141 10.9847C6.69216 11.0753 6.96133 11.2319 7.1671 11.5003C7.37535 11.772 7.49648 12.13 7.49648 12.5834C7.49648 13.0364 7.37535 13.3919 7.16214 13.6576C6.95141 13.92 6.67693 14.0631 6.42406 14.1396C6.35308 14.161 6.28095 14.1784 6.20802 14.1916V13.4649C6.21156 13.4639 6.21511 13.4628 6.21864 13.4617C6.37625 13.4139 6.5126 13.3356 6.60964 13.2145C6.70456 13.0962 6.7885 12.9053 6.7885 12.5834C6.7885 12.2618 6.70456 12.0613 6.60468 11.931C6.50268 11.7978 6.36102 11.7089 6.20093 11.6512C6.05241 11.6 5.89716 11.5709 5.74016 11.5648C5.6756 11.5618 5.61093 11.5624 5.54643 11.5666L5.53829 11.5673L5.51987 11.5694H5.46214C4.87104 11.5694 4.20485 11.5694 3.6867 11.4019C3.41258 11.3133 3.15014 11.1695 2.95748 10.9294C2.76198 10.6857 2.6667 10.3773 2.6667 10.0132C2.6667 9.64946 2.76233 9.34169 2.95783 9.09838C3.1505 8.85931 3.41293 8.71587 3.68706 8.62769C4.01502 8.52215 4.40177 8.48319 4.7917 8.46902Z" fill="#121212"/>
<path fill-rule="evenodd" clip-rule="evenodd" d="M5.1866 11.75V14.0521H5.89493V11.75H5.1866ZM5.1866 10.3334H5.89493V6.13542H5.1866V10.3334Z" fill="#121212"/>
</svg>
